<svg width="38" height="38" viewBox="0 0 38 38" fill="none" xmlns="http://www.w3.org/2000/svg">
<path d="M9.86894 9.23713L10.5735 5.71263C10.7171 4.99449 11.1051 4.34831 11.6715 3.8841C12.2379 3.41988 12.9477 3.16634 13.68 3.16663H24.32C25.0524 3.16634 25.7622 3.41988 26.3286 3.8841C26.895 4.34831 27.283 4.99449 27.4265 5.71263L28.1311 9.23713C28.2417 9.78938 28.5068 10.2989 28.8955 10.7064C29.2843 11.114 29.7808 11.4028 30.3272 11.5393C31.6144 11.8613 32.7571 12.6044 33.5736 13.6503C34.3901 14.6963 34.8335 15.9852 34.8334 17.3121V28.5C34.8334 30.1797 34.1661 31.7906 32.9784 32.9783C31.7906 34.166 30.1797 34.8333 28.5 34.8333H9.50002C7.82032 34.8333 6.20941 34.166 5.02168 32.9783C3.83395 31.7906 3.16669 30.1797 3.16669 28.5V17.3121C3.16657 15.9852 3.60998 14.6963 4.42646 13.6503C5.24293 12.6044 6.38561 11.8613 7.67285 11.5393C8.21928 11.4028 8.71574 11.114 9.10449 10.7064C9.49325 10.2989 9.75834 9.78938 9.86894 9.23713V9.23713Z" stroke="#345FB4" stroke-width="2" stroke-linecap="round" stroke-linejoin="round"/>
<path d="M19 28.4999C22.4978 28.4999 25.3334 25.6644 25.3334 22.1666C25.3334 18.6688 22.4978 15.8333 19 15.8333C15.5022 15.8333 12.6667 18.6688 12.6667 22.1666C12.6667 25.6644 15.5022 28.4999 19 28.4999Z" stroke="#345FB4" stroke-width="2" stroke-linecap="round" stroke-linejoin="round"/>
<path d="M17.4167 9.5H20.5834" stroke="#345FB4" stroke-width="2" stroke-linecap="round" stroke-linejoin="round"/>
</svg>
