<svg width="34" height="40" viewBox="0 0 34 40" fill="none" xmlns="http://www.w3.org/2000/svg">
<path fill-rule="evenodd" clip-rule="evenodd" d="M19.9455 0V5.86301H17.958C16.8601 5.86301 15.9701 6.89923 15.9701 8.17749C15.9701 9.45575 16.8601 10.492 17.958 10.492H19.9455V16.278H25.9088V12.807C25.9099 12.1689 26.3545 11.6523 26.9025 11.6523C27.4506 11.6523 27.8952 12.1689 27.8963 12.807V16.279H33.9266V0H19.9455Z" fill="#345FB4"/>
<path fill-rule="evenodd" clip-rule="evenodd" d="M4.50577 24.379C4.50577 25.6573 5.39579 26.6935 6.49368 26.6935C7.59158 26.6935 8.4816 25.6573 8.4816 24.379V22.065H12.9874V16.279H10.9999C10.451 16.279 10.0061 15.761 10.0061 15.122C10.0061 14.483 10.451 13.965 10.9999 13.965H12.9874V7.021H0V22.065H4.50577V24.379Z" fill="#345FB4"/>
<path fill-rule="evenodd" clip-rule="evenodd" d="M23.457 24.379V22.065C23.457 20.7867 22.567 19.7505 21.4691 19.7505C20.3712 19.7505 19.4812 20.7867 19.4812 22.065V24.379H14.9754V27.311C17.1696 27.3137 18.9471 29.3854 18.947 31.9401C18.947 34.4947 17.1695 36.5663 14.9753 36.569L14.9754 39.501H27.8967V24.379H23.457Z" fill="#345FB4"/>
<path fill-rule="evenodd" clip-rule="evenodd" d="M14.9757 34.254C16.0736 34.254 16.9636 33.2178 16.9636 31.9395C16.9636 30.6613 16.0736 29.625 14.9757 29.625L12.9874 29.625V24.379H10.4691C10.4691 26.9355 8.68904 29.008 6.49325 29.008C4.29746 29.008 2.51742 26.9355 2.51742 24.379H0V39.5H12.9874V34.254H14.9757Z" fill="#345FB4"/>
</svg>
