<svg width="34" height="39" viewBox="0 0 34 39" fill="none" xmlns="http://www.w3.org/2000/svg">
<path fill-rule="evenodd" clip-rule="evenodd" d="M0 36.3783V2.17826C0.0286865 2.12931 0.0534668 2.07816 0.0739746 2.02525C0.345459 0.767923 1.50574 -0.0943818 2.78796 0.00827934H29.953C30.2242 0.000955119 30.4956 0.00797416 30.766 0.0292754C31.6404 0.10148 32.4109 0.63212 32.79 1.42326C32.9021 1.66874 32.9999 1.92051 33.083 2.17729V29.0033C32.952 29.1133 32.817 29.2193 32.691 29.3343C29.4017 32.3143 26.1107 35.2929 22.818 38.2703C22.6639 38.4063 22.4683 38.4862 22.2631 38.4973C15.6957 38.5086 9.12903 38.511 2.56299 38.5042C1.47241 38.4989 0.506714 37.7984 0.163086 36.7633C0.110962 36.6363 0.052002 36.5083 0 36.3783ZM21.4415 34.2784H21.0584C15.6164 34.2784 10.1744 34.2784 4.73235 34.2784C3.9804 34.2784 3.88933 34.1983 3.88933 33.4513C3.88933 23.9953 3.88933 14.5393 3.88933 5.08335C3.88933 4.32633 3.97136 4.24333 4.71538 4.24333H20.8974C20.8844 4.30534 20.8864 4.32231 20.8783 4.32932C20.8163 4.38835 20.7524 4.44431 20.6904 4.50334C18.7486 6.18064 17.773 8.71714 18.0904 11.2633C18.1379 12.4817 18.7309 13.614 19.7051 14.3471C20.6794 15.0801 21.9317 15.3362 23.1154 15.0444C25.9364 14.5243 27.6874 12.6304 28.9303 10.1833C28.9883 10.0693 28.8404 9.85032 28.7884 9.68333C28.6304 9.76035 28.4103 9.7963 28.3234 9.92332C28.0024 10.3934 27.7654 10.9233 27.4234 11.3763C26.4633 12.8 25.0286 13.8363 23.3753 14.3003C22.3544 14.6612 21.2234 14.5215 20.3211 13.9231C19.4187 13.3247 18.85 12.3371 18.7854 11.2563C18.4673 8.88468 19.3786 6.51426 21.2034 4.96635C21.3642 4.77696 21.5009 4.56834 21.6104 4.34532L21.5104 4.24534H28.3625C29.1115 4.24534 29.1915 4.32731 29.1915 5.0803C29.1915 12.565 29.1888 20.0497 29.1834 27.5343V28.1463H31.8914C31.8995 27.9823 31.9124 27.8464 31.9124 27.7043C31.9157 19.4057 31.9184 11.1057 31.9205 2.8043C31.9849 2.34776 31.8304 1.88755 31.5036 1.5623C31.1768 1.23704 30.7157 1.08476 30.2596 1.15135H2.8344C2.73442 1.15135 2.63445 1.15135 2.53435 1.15135C1.80181 1.17893 1.21013 1.75852 1.16741 2.49033C1.15142 2.70335 1.15935 2.91831 1.15935 3.13334C1.15935 13.7893 1.15935 24.445 1.15935 35.1003C1.15935 35.3434 1.15935 35.5863 1.15935 35.8283C1.12749 36.2497 1.2835 36.6636 1.5855 36.959C1.88762 37.2545 2.30474 37.4014 2.72539 37.3603C8.80999 37.3603 14.8951 37.3603 20.9804 37.3603C21.1304 37.3603 21.2804 37.3443 21.4394 37.3353L21.4415 34.2784ZM22.6328 36.6493L30.9329 29.3493H22.6328V36.6493ZM27.3396 16.2602H5.84863V17.2602H27.3396V16.2602ZM27.3396 20.0293H5.85059V21.0293H27.3396V20.0293ZM5.83887 24.8074H27.3239V23.8074H5.83887V24.8074ZM5.83203 28.6593H27.323V27.6593H5.83203V28.6593ZM24.8319 8.96629C25.0254 8.87138 25.2045 8.74949 25.3639 8.60429C25.4634 8.46971 25.4978 8.29783 25.4579 8.13529C25.4279 8.05424 25.1709 8.01628 25.0249 8.03526C24.8872 8.07389 24.7614 8.14646 24.659 8.24626C24.4309 8.4243 24.267 8.38029 24.089 8.15824C23.662 7.62327 23.203 7.11228 22.789 6.57127C22.6819 6.43327 22.689 6.20927 22.616 6.03929C22.534 5.88206 22.4407 5.731 22.3369 5.58726C22.1944 5.69248 22.0606 5.80918 21.937 5.93626C21.8809 6.00224 21.8989 6.12827 21.8779 6.22624C21.3949 8.47025 20.9059 10.7133 20.4409 12.9602C20.4129 13.1517 20.4787 13.3449 20.6179 13.4793C20.8839 13.6203 21.0259 13.3933 21.0929 13.1523C21.2929 12.4373 21.482 11.7203 21.6819 11.0063C21.7149 10.8893 21.7519 10.7293 21.8389 10.6773C22.6179 10.2113 23.4079 9.76426 24.2009 9.30827C24.6929 9.85526 25.1449 10.3513 25.5879 10.8543C25.758 11.0473 25.9319 11.2483 26.1879 11.0363C26.4439 10.8243 26.2829 10.6013 26.1179 10.4132C25.6997 9.93626 25.2838 9.46928 24.8297 8.9633L24.8319 8.96629ZM11.3578 12.4725H6.90076C6.64441 12.4473 6.38733 12.4572 6.13171 12.5019C6.02576 12.5313 5.9397 12.7995 5.84473 12.9593C5.93481 13.1269 6.0304 13.2846 6.13062 13.4315C6.1687 13.483 6.2417 13.4462 6.29871 13.4462H16.4117C16.4828 13.4462 16.5768 13.4848 16.6207 13.4186C16.7189 13.2986 16.7927 13.1222 16.8307 12.9171C16.8407 12.7977 16.7137 12.5791 16.6237 12.5111C16.5127 12.462 16.3978 12.4508 16.2847 12.478L11.3578 12.4725ZM11.3337 31.4914H6.57874C6.43701 31.4631 6.29382 31.4728 6.15369 31.5204C6.03918 31.6281 5.93542 31.7697 5.84668 31.9396C5.94409 32.122 6.04871 32.2912 6.15967 32.4458C6.20862 32.5056 6.29871 32.4566 6.36963 32.4566H16.3086C16.4084 32.4887 16.5109 32.48 16.6086 32.4313C16.7086 32.335 16.8346 32.1301 16.8326 31.9758C16.8307 31.8216 16.7026 31.6003 16.6036 31.5276C16.4785 31.4758 16.3491 31.4647 16.2218 31.4949L11.3337 31.4914ZM27.5564 6.65336C27.5032 6.43662 27.4232 6.22733 27.3184 6.03031C27.2184 5.89335 27.0183 5.73033 26.8823 5.74534C26.6273 5.78233 26.6063 6.01835 26.6724 6.25535C26.8973 7.06535 26.8944 7.06632 26.1903 7.49235C26.1533 7.51432 26.0973 7.5283 26.0844 7.56034C26.0173 7.72434 25.9613 7.89335 25.9023 8.06034C26.0763 8.09233 26.2723 8.18931 26.4214 8.14134C26.6757 8.03281 26.9182 7.89878 27.1454 7.74131C27.2363 8.04136 27.3234 8.31431 27.3984 8.58732C27.4645 8.82731 27.6105 9.0073 27.8484 8.88731C27.9868 8.77244 28.0614 8.59776 28.0483 8.41831C27.9799 8.05564 27.8887 7.69761 27.7754 7.34635C28.0262 7.2227 28.2661 7.07786 28.4924 6.91331C28.5924 6.82835 28.6775 6.56034 28.6244 6.49735C28.5063 6.37888 28.3407 6.32072 28.1744 6.33933C27.9547 6.41483 27.7461 6.51939 27.5542 6.65031L27.5564 6.65336Z" fill="#345FB4"/>
<path fill-rule="evenodd" clip-rule="evenodd" d="M21.9492 9.77222L22.4162 7.28125L23.7162 8.78125L21.9492 9.77222Z" fill="#345FB4"/>
</svg>
